<svg xmlns="http://www.w3.org/2000/svg" version="1.1" xmlns:xlink="http://www.w3.org/1999/xlink" width="1500" height="124" viewBox="0 0 1500 124"><svg xml:space="preserve" width="1500" height="124" data-version="2" data-id="lg_FgQh94sn6QmposM1Hr" viewBox="0 0 562 124" x="0" y="0"><rect width="100%" height="100%" fill="transparent"></rect><path fill="#002440" d="M170.64 107.894v-87.29h53.79v9.31h-42.95v29.33h40.45v9.31h-40.45v29.89h42.95v9.45Z"></path><rect width="53.79" height="87.29" x="-26.89" y="-43.65" fill="none" rx="0" ry="0" transform="translate(198.03 64.75)"></rect><path fill="#002440" d="M259.74 20.604v77.84h38.92v9.45H248.9v-87.29Z"></path><rect width="49.76" height="87.29" x="-24.88" y="-43.65" fill="none" rx="0" ry="0" transform="translate(274.28 64.75)"></rect><path fill="#002440" d="M313.88 20.604h25.57q13.21 0 22.94 5.38 9.73 5.39 15.08 15.19t5.35 23.07q0 13.14-5.35 22.94t-15.08 15.25q-9.73 5.46-22.94 5.46h-25.57Zm10.84 9.59v68.25h14.73q9.87 0 17-4.45 7.12-4.45 10.98-12.2 3.86-7.75 3.86-17.55 0-9.86-3.86-17.54t-10.98-12.1q-7.13-4.41-17-4.41Z"></path><rect width="68.94" height="87.29" x="-34.47" y="-43.65" fill="none" rx="0" ry="0" transform="translate(348.85 64.75)"></rect><path fill="#002440" d="M436.48 109.564q-10.85 0-19.39-5.01-8.55-5-13.49-15.04-4.93-10.05-4.93-25.13 0-15.29 4.93-25.33 4.94-10.04 13.49-15.01 8.54-4.97 19.39-4.97 10.84 0 19.39 5 8.55 5.01 13.48 15.08 4.93 10.08 4.93 25.23 0 15.22-4.93 25.27-4.93 10.04-13.48 14.97-8.55 4.94-19.39 4.94m0-10.01q12.3 0 19.42-8.97 7.13-8.96 7.13-26.34 0-17.02-7.13-26.23-7.12-9.21-19.42-9.21-12.17 0-19.36 9.24-7.19 9.25-7.19 26.34 0 17.31 7.19 26.24t19.36 8.93"></path><rect width="75.61" height="90.49" x="-37.8" y="-45.24" fill="none" rx="0" ry="0" transform="translate(436.98 64.82)"></rect><path fill="#002440" d="M523.28 109.564q-8.75 0-16.05-3.16-7.3-3.17-11.75-9.35-4.45-6.19-4.58-15.29h10.56q0 6.11 2.99 10.04 2.99 3.93 7.92 5.84 4.94 1.91 10.77 1.91 6.33 0 10.98-2.02 4.66-2.01 7.2-5.31 2.53-3.3 2.53-7.26 0-5.56-3.4-9.01-3.41-3.44-10.08-5.59l-15.43-5.42q-10.84-3.89-16.4-8.9-5.56-5-5.56-14.04 0-10.14 7.82-16.54 7.82-6.39 22.2-6.39 13.35 0 20.85 6.15 7.51 6.15 8.62 16.51h-10.7q-1.04-6.05-5.66-9.42-4.63-3.37-13.11-3.37-8.61 0-13.41 3.82-4.79 3.82-4.79 9.66 0 4.8 3.02 7.61 3.02 2.82 9.49 5.04l18.07 6.26q9.38 3.12 14.83 8.75 5.46 5.63 5.46 14.6 0 6.95-3.72 12.58t-10.95 8.96q-7.22 3.34-17.72 3.34"></path><rect width="64.77" height="90.49" x="-32.38" y="-45.24" fill="none" rx="0" ry="0" transform="translate(523.78 64.82)"></rect><path fill="#002440" d="M59.044 15.24c-.788-2.785.048-3.195.757-3.129a7.075 7.075 0 0 1-.182-4.232c.366-1.568 1.214-2.823 2.164-3.794a10.342 10.342 0 0 1 2.002-1.654 7.774 7.774 0 0 1 1.944-.996h.001a6.449 6.449 0 0 1 1.768-.338c1.93-.167 3.39.317 4.44.938 1.566.864 2.16 2.009 2.16 2.009s3.943.276 2.217 8.541c.531.184.904.911.29 3.085-.756 2.672-1.443 2.819-1.858 2.538-.511 2.879-2.06 6.588-7.054 6.783-5.072-.388-6.679-4.186-7.131-7.112-.407-.034-.942-.605-1.518-2.64m25.89 17.117c-.098-1.88-.734-4.268-3.225-4.9-4.273-1.088-7.743-3.53-7.743-3.53l-2.708 8.563-.51 1.612-.009-.022-.445 1.366-1.427-4.05c3.611-5.039-.957-4.843-.957-4.843s-4.566-.196-.956 4.842l-1.441 4.083-.441-1.38-3.216-10.172s-3.47 2.443-7.743 3.53c-2.491.633-3.127 3.021-3.225 4.901a24.02 24.02 0 0 0 17.022 7.042c6.647 0 12.665-2.69 17.024-7.042M20.887 78.473a2.193 2.193 0 0 0 2.193-2.193V63.667h42.524V76.28a2.193 2.193 0 1 0 4.386 0V63.667h42.524V76.28a2.193 2.193 0 1 0 4.386 0V61.474a2.193 2.193 0 0 0-2.193-2.193H70.106v-13.59a2.193 2.193 0 1 0-4.386 0v13.59H20.887a2.193 2.193 0 0 0-2.193 2.193V76.28c0 1.211.982 2.193 2.193 2.193m38.04 20.302c.576 2.035 1.112 2.606 1.517 2.638.452 2.924 2.059 6.722 7.132 7.112 4.994-.195 6.542-3.904 7.054-6.783.413.282 1.102.134 1.858-2.538.615-2.172.24-2.9-.29-3.085 1.725-8.264-2.217-8.542-2.217-8.542s-.594-1.144-2.16-2.008c-1.05-.623-2.511-1.105-4.44-.938a6.407 6.407 0 0 0-1.769.338 7.75 7.75 0 0 0-1.945.996 10.443 10.443 0 0 0-2.002 1.654c-.95.97-1.797 2.226-2.164 3.794a7.086 7.086 0 0 0 .183 4.232c-.707-.066-1.543.346-.756 3.13m22.666 12.215c-4.27-1.086-7.743-3.53-7.743-3.53l-2.708 8.564-.51 1.613-.009-.023-.445 1.366-1.427-4.05c3.612-5.036-.955-4.841-.955-4.841s-4.567-.196-.957 4.842l-1.44 4.083-.441-1.38-3.216-10.172s-3.47 2.443-7.743 3.53c-2.491.633-3.127 3.02-3.226 4.901a24.02 24.02 0 0 0 17.023 7.042 24.02 24.02 0 0 0 17.023-7.042c-.099-1.882-.735-4.27-3.226-4.903m27.442 3.686-3.011.444 2.597-6.473c-1.003.995-3.827 1.655-3.901 1.695-.075.04-1.167.242-3.313 1.251s-2.26 3.202-2.26 3.202v2.676a25.039 25.039 0 0 0 15.53 5.46l-1.94-2.839zm18.97-3.081c-2.145-1.01-3.236-1.212-3.312-1.252-.075-.04-2.898-.7-3.902-1.695l2.598 6.474-3.011-.444-3.702 5.418-1.94 2.84a25.043 25.043 0 0 0 15.53-5.461v-2.676c-.003-.002-.115-2.195-2.26-3.204m-8.909-5.323s4.84.148 7.136-2.197c0 0-3.342-.947-2.74-7.03.6-6.082-.75-11.423-5.637-10.97 0 0-2.12-2.551-6.337-.947-1.449.551-5.334 1.942-5.136 10.37.198 8.429-2.995 8.477-2.995 8.477s1.646 2.395 7.234 2.345v2.515l4.057 14.098h.055l4.365-14.098v-2.563zm-103.881 8.404-3.012.444 2.598-6.473c-1.003.995-3.827 1.655-3.901 1.695-.075.04-1.167.242-3.313 1.251s-2.26 3.202-2.26 3.202v2.676a25.036 25.036 0 0 0 15.53 5.46l-1.94-2.839zm18.969-3.081c-2.146-1.01-3.238-1.212-3.313-1.252-.076-.04-2.898-.7-3.901-1.695l2.597 6.474-3.01-.444-3.702 5.418-1.94 2.84a25.036 25.036 0 0 0 15.528-5.461v-2.676c0-.002-.113-2.195-2.259-3.204m-8.907-5.323s4.84.148 7.136-2.197c0 0-3.342-.947-2.74-7.03.6-6.082-.75-11.423-5.637-10.97 0 0-2.12-2.551-6.337-.947-1.447.551-5.334 1.942-5.136 10.37.198 8.429-2.995 8.477-2.995 8.477s1.645 2.395 7.234 2.345v2.515l4.056 14.098h.056l4.365-14.098v-2.563z"></path></svg></svg>