<svg width="1512" height="982" viewBox="0 0 1512 982" fill="none" xmlns="http://www.w3.org/2000/svg">
    <g clip-path="url(#clip0_645_16)">
        <rect width="1512" height="982" fill="#FAF7FF"/>
        <path d="M1308.22 383.308C1299.18 482.481 1208.8 556.102 1193.96 654.703C1174.49 784.092 1304.58 945.66 1209.79 1037.33C1117.96 1126.14 966.921 1011.06 842.035 995.056C753.53 983.712 669.342 977.29 582.658 956.95C473.045 931.231 347.373 937.608 266.672 860.054C180.049 776.81 107.229 647.964 138.107 529.74C169.644 408.994 343.103 389.417 416.214 287.492C485.509 190.888 437.565 15.2592 544.298 -36.5326C649.923 -87.7867 751.523 60.1793 867.379 68.5659C998.646 78.0679 1146.12 -61.0895 1252.3 14.7177C1354.75 87.8629 1319.8 256.311 1308.22 383.308Z" fill="#FCFCFC" fill-opacity="0.7"/>
        <path d="M1489.28 712.139C1487.04 712.139 1485.21 710.309 1485.21 708.069C1485.21 705.83 1487.04 704 1489.28 704C1491.52 704 1493.35 705.83 1493.35 708.069C1493.35 710.309 1491.52 712.139 1489.28 712.139Z" fill="#7229D9"/>
        <path d="M1489.28 748.739C1487.04 748.739 1485.21 746.909 1485.21 744.669C1485.21 742.43 1487.04 740.6 1489.28 740.6C1491.52 740.6 1493.35 742.43 1493.35 744.669C1493.35 746.909 1491.52 748.739 1489.28 748.739Z" fill="#7229D9"/>
        <path d="M1489.28 785.339C1487.04 785.339 1485.21 783.509 1485.21 781.269C1485.21 779.03 1487.04 777.2 1489.28 777.2C1491.52 777.2 1493.35 779.03 1493.35 781.269C1493.35 783.509 1491.52 785.339 1489.28 785.339Z" fill="#7229D9"/>
        <path d="M1489.28 821.939C1487.04 821.939 1485.21 820.109 1485.21 817.87C1485.21 815.63 1487.04 813.8 1489.28 813.8C1491.52 813.8 1493.35 815.63 1493.35 817.87C1493.35 820.109 1491.52 821.939 1489.28 821.939Z" fill="#7229D9"/>
        <path d="M1489.28 858.539C1487.04 858.539 1485.21 856.709 1485.21 854.469C1485.21 852.23 1487.04 850.4 1489.28 850.4C1491.52 850.4 1493.35 852.23 1493.35 854.469C1493.35 856.709 1491.52 858.539 1489.28 858.539Z" fill="#7229D9"/>
        <path d="M1489.28 895.138C1487.04 895.138 1485.21 893.308 1485.21 891.069C1485.21 888.83 1487.04 887 1489.28 887C1491.52 887 1493.35 888.83 1493.35 891.069C1493.35 893.308 1491.52 895.138 1489.28 895.138Z" fill="#7229D9"/>
        <path d="M1489.28 931.738C1487.04 931.738 1485.21 929.908 1485.21 927.669C1485.21 925.43 1487.04 923.6 1489.28 923.6C1491.52 923.6 1493.35 925.43 1493.35 927.669C1493.35 929.908 1491.52 931.738 1489.28 931.738Z" fill="#7229D9"/>
        <path d="M1489.28 968.338C1487.04 968.338 1485.21 966.508 1485.21 964.269C1485.21 962.03 1487.04 960.2 1489.28 960.2C1491.52 960.2 1493.35 962.03 1493.35 964.269C1493.35 966.508 1491.52 968.338 1489.28 968.338Z" fill="#7229D9"/>
        <path d="M1452.68 708.069C1452.68 710.317 1454.5 712.139 1456.75 712.139C1458.99 712.139 1460.82 710.317 1460.82 708.069C1460.82 705.822 1458.99 704 1456.75 704C1454.5 704 1452.68 705.822 1452.68 708.069Z" fill="#7229D9"/>
        <path d="M1452.68 744.669C1452.68 746.917 1454.5 748.739 1456.75 748.739C1458.99 748.739 1460.82 746.917 1460.82 744.669C1460.82 742.422 1458.99 740.6 1456.75 740.6C1454.5 740.6 1452.68 742.422 1452.68 744.669Z" fill="#7229D9"/>
        <path d="M1452.68 781.269C1452.68 783.517 1454.5 785.339 1456.75 785.339C1458.99 785.339 1460.82 783.517 1460.82 781.269C1460.82 779.022 1458.99 777.2 1456.75 777.2C1454.5 777.2 1452.68 779.022 1452.68 781.269Z" fill="#7229D9"/>
        <path d="M1456.75 821.939C1454.51 821.939 1452.68 820.109 1452.68 817.87C1452.68 815.63 1454.51 813.8 1456.75 813.8C1458.99 813.8 1460.82 815.63 1460.82 817.87C1460.79 820.109 1458.99 821.939 1456.75 821.939Z" fill="#7229D9"/>
        <path d="M1456.75 858.539C1454.51 858.539 1452.68 856.709 1452.68 854.469C1452.68 852.23 1454.51 850.4 1456.75 850.4C1458.99 850.4 1460.82 852.23 1460.82 854.469C1460.79 856.709 1458.99 858.539 1456.75 858.539Z" fill="#7229D9"/>
        <path d="M1452.68 891.069C1452.68 893.316 1454.5 895.138 1456.75 895.138C1458.99 895.138 1460.82 893.316 1460.82 891.069C1460.82 888.822 1458.99 887 1456.75 887C1454.5 887 1452.68 888.822 1452.68 891.069Z" fill="#7229D9"/>
        <path d="M1452.68 927.669C1452.68 929.916 1454.5 931.738 1456.75 931.738C1458.99 931.738 1460.82 929.916 1460.82 927.669C1460.82 925.422 1458.99 923.6 1456.75 923.6C1454.5 923.6 1452.68 925.422 1452.68 927.669Z" fill="#7229D9"/>
        <path d="M1452.68 964.269C1452.68 966.516 1454.5 968.338 1456.75 968.338C1458.99 968.338 1460.82 966.516 1460.82 964.269C1460.82 962.022 1458.99 960.2 1456.75 960.2C1454.5 960.2 1452.68 962.022 1452.68 964.269Z" fill="#7229D9"/>
        <path d="M1424.19 712.139C1421.95 712.139 1420.12 710.309 1420.12 708.069C1420.12 705.83 1421.95 704 1424.19 704C1426.43 704 1428.26 705.83 1428.26 708.069C1428.26 710.309 1426.46 712.139 1424.19 712.139Z" fill="#7229D9"/>
        <path d="M1424.19 748.739C1421.95 748.739 1420.12 746.909 1420.12 744.669C1420.12 742.43 1421.95 740.6 1424.19 740.6C1426.43 740.6 1428.26 742.43 1428.26 744.669C1428.26 746.909 1426.46 748.739 1424.19 748.739Z" fill="#7229D9"/>
        <path d="M1424.19 785.339C1421.95 785.339 1420.12 783.509 1420.12 781.269C1420.12 779.03 1421.95 777.2 1424.19 777.2C1426.43 777.2 1428.26 779.03 1428.26 781.269C1428.26 783.509 1426.46 785.339 1424.19 785.339Z" fill="#7229D9"/>
        <path d="M1424.19 821.939C1421.95 821.939 1420.12 820.109 1420.12 817.87C1420.12 815.63 1421.95 813.8 1424.19 813.8C1426.43 813.8 1428.26 815.63 1428.26 817.87C1428.26 820.109 1426.46 821.939 1424.19 821.939Z" fill="#7229D9"/>
        <path d="M1424.19 858.539C1421.95 858.539 1420.12 856.709 1420.12 854.469C1420.12 852.23 1421.95 850.4 1424.19 850.4C1426.43 850.4 1428.26 852.23 1428.26 854.469C1428.26 856.709 1426.46 858.539 1424.19 858.539Z" fill="#7229D9"/>
        <path d="M1424.19 895.138C1421.95 895.138 1420.12 893.308 1420.12 891.069C1420.12 888.83 1421.95 887 1424.19 887C1426.43 887 1428.26 888.83 1428.26 891.069C1428.26 893.308 1426.46 895.138 1424.19 895.138Z" fill="#7229D9"/>
        <path d="M1424.19 931.738C1421.95 931.738 1420.12 929.908 1420.12 927.669C1420.12 925.43 1421.95 923.6 1424.19 923.6C1426.43 923.6 1428.26 925.43 1428.26 927.669C1428.26 929.908 1426.46 931.738 1424.19 931.738Z" fill="#7229D9"/>
        <path d="M1424.19 968.338C1421.95 968.338 1420.12 966.508 1420.12 964.269C1420.12 962.03 1421.95 960.2 1424.19 960.2C1426.43 960.2 1428.26 962.03 1428.26 964.269C1428.26 966.508 1426.46 968.338 1424.19 968.338Z" fill="#7229D9"/>
        <path d="M1391.66 712.139C1389.42 712.139 1387.59 710.309 1387.59 708.069C1387.59 705.83 1389.42 704 1391.66 704C1393.9 704 1395.73 705.83 1395.73 708.069C1395.73 710.309 1393.92 712.139 1391.66 712.139Z" fill="#7229D9"/>
        <path d="M1391.66 748.739C1389.42 748.739 1387.59 746.909 1387.59 744.669C1387.59 742.43 1389.42 740.6 1391.66 740.6C1393.9 740.6 1395.73 742.43 1395.73 744.669C1395.73 746.909 1393.92 748.739 1391.66 748.739Z" fill="#7229D9"/>
        <path d="M1391.66 785.339C1389.42 785.339 1387.59 783.509 1387.59 781.269C1387.59 779.03 1389.42 777.2 1391.66 777.2C1393.9 777.2 1395.73 779.03 1395.73 781.269C1395.73 783.509 1393.92 785.339 1391.66 785.339Z" fill="#7229D9"/>
        <path d="M1391.66 821.939C1389.42 821.939 1387.59 820.109 1387.59 817.87C1387.59 815.63 1389.42 813.8 1391.66 813.8C1393.9 813.8 1395.73 815.63 1395.73 817.87C1395.73 820.109 1393.92 821.939 1391.66 821.939Z" fill="#7229D9"/>
        <path d="M1391.66 858.539C1389.42 858.539 1387.59 856.709 1387.59 854.469C1387.59 852.23 1389.42 850.4 1391.66 850.4C1393.9 850.4 1395.73 852.23 1395.73 854.469C1395.73 856.709 1393.92 858.539 1391.66 858.539Z" fill="#7229D9"/>
        <path d="M1391.66 895.138C1389.42 895.138 1387.59 893.308 1387.59 891.069C1387.59 888.83 1389.42 887 1391.66 887C1393.9 887 1395.73 888.83 1395.73 891.069C1395.73 893.308 1393.92 895.138 1391.66 895.138Z" fill="#7229D9"/>
        <path d="M1391.66 931.738C1389.42 931.738 1387.59 929.908 1387.59 927.669C1387.59 925.43 1389.42 923.6 1391.66 923.6C1393.9 923.6 1395.73 925.43 1395.73 927.669C1395.73 929.908 1393.92 931.738 1391.66 931.738Z" fill="#7229D9"/>
        <path d="M1391.66 968.338C1389.42 968.338 1387.59 966.508 1387.59 964.269C1387.59 962.03 1389.42 960.2 1391.66 960.2C1393.9 960.2 1395.73 962.03 1395.73 964.269C1395.73 966.508 1393.92 968.338 1391.66 968.338Z" fill="#7229D9"/>
        <path d="M1359.13 712.139C1356.89 712.139 1355.06 710.309 1355.06 708.069C1355.06 705.83 1356.89 704 1359.13 704C1361.37 704 1363.2 705.83 1363.2 708.069C1363.2 710.309 1361.37 712.139 1359.13 712.139Z" fill="#7229D9"/>
        <path d="M1359.13 748.739C1356.89 748.739 1355.06 746.909 1355.06 744.669C1355.06 742.43 1356.89 740.6 1359.13 740.6C1361.37 740.6 1363.2 742.43 1363.2 744.669C1363.2 746.909 1361.37 748.739 1359.13 748.739Z" fill="#7229D9"/>
        <path d="M1359.13 785.339C1356.89 785.339 1355.06 783.509 1355.06 781.269C1355.06 779.03 1356.89 777.2 1359.13 777.2C1361.37 777.2 1363.2 779.03 1363.2 781.269C1363.2 783.509 1361.37 785.339 1359.13 785.339Z" fill="#7229D9"/>
        <path d="M1359.13 821.939C1356.89 821.939 1355.06 820.109 1355.06 817.87C1355.06 815.63 1356.89 813.8 1359.13 813.8C1361.37 813.8 1363.2 815.63 1363.2 817.87C1363.2 820.109 1361.37 821.939 1359.13 821.939Z" fill="#7229D9"/>
        <path d="M1359.13 858.539C1356.89 858.539 1355.06 856.709 1355.06 854.469C1355.06 852.23 1356.89 850.4 1359.13 850.4C1361.37 850.4 1363.2 852.23 1363.2 854.469C1363.2 856.709 1361.37 858.539 1359.13 858.539Z" fill="#7229D9"/>
        <path d="M1359.13 895.138C1356.89 895.138 1355.06 893.308 1355.06 891.069C1355.06 888.83 1356.89 887 1359.13 887C1361.37 887 1363.2 888.83 1363.2 891.069C1363.2 893.308 1361.37 895.138 1359.13 895.138Z" fill="#7229D9"/>
        <path d="M1359.13 931.738C1356.89 931.738 1355.06 929.908 1355.06 927.669C1355.06 925.43 1356.89 923.6 1359.13 923.6C1361.37 923.6 1363.2 925.43 1363.2 927.669C1363.2 929.908 1361.37 931.738 1359.13 931.738Z" fill="#7229D9"/>
        <path d="M1359.13 968.338C1356.89 968.338 1355.06 966.508 1355.06 964.269C1355.06 962.03 1356.89 960.2 1359.13 960.2C1361.37 960.2 1363.2 962.03 1363.2 964.269C1363.2 966.508 1361.37 968.338 1359.13 968.338Z" fill="#7229D9"/>
        <path d="M1322.53 708.069C1322.53 710.317 1324.35 712.139 1326.6 712.139C1328.85 712.139 1330.67 710.317 1330.67 708.069C1330.67 705.822 1328.85 704 1326.6 704C1324.35 704 1322.53 705.822 1322.53 708.069Z" fill="#7229D9"/>
        <path d="M1322.53 744.669C1322.53 746.917 1324.35 748.739 1326.6 748.739C1328.85 748.739 1330.67 746.917 1330.67 744.669C1330.67 742.422 1328.85 740.6 1326.6 740.6C1324.35 740.6 1322.53 742.422 1322.53 744.669Z" fill="#7229D9"/>
        <path d="M1322.53 781.269C1322.53 783.517 1324.35 785.339 1326.6 785.339C1328.85 785.339 1330.67 783.517 1330.67 781.269C1330.67 779.022 1328.85 777.2 1326.6 777.2C1324.35 777.2 1322.53 779.022 1322.53 781.269Z" fill="#7229D9"/>
        <path d="M1326.6 821.939C1324.36 821.939 1322.53 820.109 1322.53 817.87C1322.53 815.63 1324.36 813.8 1326.6 813.8C1328.84 813.8 1330.67 815.63 1330.67 817.87C1330.67 820.109 1328.84 821.939 1326.6 821.939Z" fill="#7229D9"/>
        <path d="M1326.6 858.539C1324.36 858.539 1322.53 856.709 1322.53 854.469C1322.53 852.23 1324.36 850.4 1326.6 850.4C1328.84 850.4 1330.67 852.23 1330.67 854.469C1330.67 856.709 1328.84 858.539 1326.6 858.539Z" fill="#7229D9"/>
        <path d="M1322.53 891.069C1322.53 893.316 1324.35 895.138 1326.6 895.138C1328.85 895.138 1330.67 893.316 1330.67 891.069C1330.67 888.822 1328.85 887 1326.6 887C1324.35 887 1322.53 888.822 1322.53 891.069Z" fill="#7229D9"/>
        <path d="M1322.53 927.669C1322.53 929.916 1324.35 931.738 1326.6 931.738C1328.85 931.738 1330.67 929.916 1330.67 927.669C1330.67 925.422 1328.85 923.6 1326.6 923.6C1324.35 923.6 1322.53 925.422 1322.53 927.669Z" fill="#7229D9"/>
        <path d="M1322.53 964.269C1322.53 966.516 1324.35 968.338 1326.6 968.338C1328.85 968.338 1330.67 966.516 1330.67 964.269C1330.67 962.022 1328.85 960.2 1326.6 960.2C1324.35 960.2 1322.53 962.022 1322.53 964.269Z" fill="#7229D9"/>
        <path d="M1294.07 712.139C1291.83 712.139 1290 710.309 1290 708.069C1290 705.83 1291.83 704 1294.07 704C1296.31 704 1298.14 705.83 1298.14 708.069C1298.14 710.309 1296.31 712.139 1294.07 712.139Z" fill="#7229D9"/>
        <path d="M1294.07 748.739C1291.83 748.739 1290 746.909 1290 744.669C1290 742.43 1291.83 740.6 1294.07 740.6C1296.31 740.6 1298.14 742.43 1298.14 744.669C1298.14 746.909 1296.31 748.739 1294.07 748.739Z" fill="#7229D9"/>
        <path d="M1294.07 785.339C1291.83 785.339 1290 783.509 1290 781.269C1290 779.03 1291.83 777.2 1294.07 777.2C1296.31 777.2 1298.14 779.03 1298.14 781.269C1298.14 783.509 1296.31 785.339 1294.07 785.339Z" fill="#7229D9"/>
        <path d="M1294.07 821.939C1291.83 821.939 1290 820.109 1290 817.87C1290 815.63 1291.83 813.8 1294.07 813.8C1296.31 813.8 1298.14 815.63 1298.14 817.87C1298.14 820.109 1296.31 821.939 1294.07 821.939Z" fill="#7229D9"/>
        <path d="M1294.07 858.539C1291.83 858.539 1290 856.709 1290 854.469C1290 852.23 1291.83 850.4 1294.07 850.4C1296.31 850.4 1298.14 852.23 1298.14 854.469C1298.14 856.709 1296.31 858.539 1294.07 858.539Z" fill="#7229D9"/>
        <path d="M1294.07 895.138C1291.83 895.138 1290 893.308 1290 891.069C1290 888.83 1291.83 887 1294.07 887C1296.31 887 1298.14 888.83 1298.14 891.069C1298.14 893.308 1296.31 895.138 1294.07 895.138Z" fill="#7229D9"/>
        <path d="M1294.07 931.738C1291.83 931.738 1290 929.908 1290 927.669C1290 925.43 1291.83 923.6 1294.07 923.6C1296.31 923.6 1298.14 925.43 1298.14 927.669C1298.14 929.908 1296.31 931.738 1294.07 931.738Z" fill="#7229D9"/>
        <path d="M1294.07 968.338C1291.83 968.338 1290 966.508 1290 964.269C1290 962.03 1291.83 960.2 1294.07 960.2C1296.31 960.2 1298.14 962.03 1298.14 964.269C1298.14 966.508 1296.31 968.338 1294.07 968.338Z" fill="#7229D9"/>
        <path d="M11.9999 246C-112.619 246 -214 144.619 -214 20C-214 -104.619 -112.619 -206 11.9999 -206C136.619 -206 238 -104.619 238 20C237.976 144.619 136.595 246 11.9999 246ZM11.9999 -198.405C-108.429 -198.405 -206.405 -100.429 -206.405 20C-206.405 140.428 -108.429 238.405 11.9999 238.405C132.428 238.405 230.405 140.428 230.405 20C230.405 -100.429 132.428 -198.405 11.9999 -198.405Z" fill="#391D71" fill-opacity="0.1"/>
        <path d="M11.9999 221.309C-99.0001 221.309 -189.31 131 -189.31 19.9999C-189.31 -91.0001 -99.0001 -181.31 11.9999 -181.31C123 -181.31 213.309 -91.0001 213.309 19.9999C213.286 131 122.976 221.309 11.9999 221.309ZM11.9999 -173.714C-94.8096 -173.714 -181.714 -86.8096 -181.714 19.9999C-181.714 126.809 -94.8096 213.714 11.9999 213.714C118.809 213.714 205.714 126.809 205.714 19.9999C205.714 -86.8096 118.809 -173.714 11.9999 -173.714Z" fill="#391D71" fill-opacity="0.1"/>
        <path d="M11.9997 196.619C-85.3813 196.619 -164.619 117.381 -164.619 19.9998C-164.619 -77.3811 -85.3813 -156.619 11.9997 -156.619C109.381 -156.619 188.619 -77.3811 188.619 19.9998C188.595 117.381 109.381 196.619 11.9997 196.619ZM11.9997 -149.024C-81.2146 -149.024 -157.024 -73.1906 -157.024 19.9998C-157.024 113.214 -81.1908 189.024 11.9997 189.024C105.19 189.024 181.024 113.19 181.024 19.9998C181.024 -73.1906 105.19 -149.024 11.9997 -149.024Z" fill="#391D71" fill-opacity="0.1"/>
        <path d="M11.9998 171.928C-71.7621 171.928 -139.929 103.786 -139.929 19.9998C-139.929 -63.7621 -71.7859 -131.929 11.9998 -131.929C95.7617 -131.929 163.928 -63.7859 163.928 19.9998C163.905 103.786 95.7617 171.928 11.9998 171.928ZM11.9998 -124.333C-67.5955 -124.333 -132.334 -59.5716 -132.334 19.9998C-132.334 99.5951 -67.5716 164.333 11.9998 164.333C91.5712 164.333 156.333 99.5713 156.333 19.9998C156.333 -59.5716 91.5712 -124.333 11.9998 -124.333Z" fill="#391D71" fill-opacity="0.1"/>
        <path d="M12.0005 147.238C-58.1661 147.238 -115.238 90.1666 -115.238 20C-115.238 -50.1667 -58.1661 -107.238 12.0005 -107.238C82.1672 -107.238 139.239 -50.1667 139.239 20C139.215 90.1666 82.1434 147.238 12.0005 147.238ZM12.0005 -99.6429C-53.9756 -99.6429 -107.642 -45.9762 -107.642 20C-107.642 85.9762 -53.9756 139.667 12.0005 139.667C77.9767 139.667 131.643 86 131.643 20C131.643 -45.9762 77.9767 -99.6429 12.0005 -99.6429Z" fill="#391D71" fill-opacity="0.1"/>
        <path d="M12.0001 122.548C-44.5475 122.548 -90.5474 76.5476 -90.5474 20C-90.5474 -36.5476 -44.5475 -82.5476 12.0001 -82.5476C68.5477 -82.5476 114.548 -36.5476 114.548 20C114.548 76.5476 68.5239 122.548 12.0001 122.548ZM12.0001 -74.9524C-40.357 -74.9524 -82.976 -32.3571 -82.976 20.0238C-82.976 72.381 -40.3808 115 12.0001 115C64.381 115 106.976 72.4048 106.976 20.0238C106.952 -32.3571 64.3572 -74.9524 12.0001 -74.9524Z" fill="#391D71" fill-opacity="0.1"/>
    </g>
    <defs>
        <clipPath id="clip0_645_16">
            <rect width="1512" height="982" fill="white"/>
        </clipPath>
    </defs>
</svg>
