<svg width="275" height="275" viewBox="0 0 275 275" fill="none" xmlns="http://www.w3.org/2000/svg">
    <rect width="275" height="275" rx="50" fill="#FBFBFB"/>
    <path d="M214.173 98.1921H185.617C185.508 87.6735 176.411 79.1484 165.242 79.1484H108.757C97.5891 79.1484 88.4907 87.6735 88.3821 98.1921H59.8267C51.1 98.1921 44 104.895 44 113.133V197.896C44 206.134 51.1 212.836 59.8267 212.836H214.174C222.9 212.836 230 206.134 230 197.895V113.133C230 104.895 222.9 98.1921 214.173 98.1921ZM159.191 113.427H114.809C109.359 113.427 104.924 109.242 104.924 104.096C104.924 99.2508 108.931 95.1657 114.046 94.796L157.144 94.593L159.953 94.796C165.069 95.1657 169.076 99.2508 169.076 104.096C169.076 109.242 164.641 113.427 159.191 113.427Z" fill="#E1D1F7"/>
    <path d="M214.273 98.4023H202.027C210.699 98.4023 217.755 105.092 217.755 113.315V197.923C217.755 206.146 210.699 212.836 202.027 212.836H214.273C222.945 212.836 230 206.146 230 197.923V113.315C230 105.092 222.945 98.4023 214.273 98.4023Z" fill="#CDB3F2"/>
    <path d="M116.625 101.079V63.1212C116.625 58.6837 120.222 55.0865 124.659 55.0865H149.459C153.831 55.0865 157.375 58.6307 157.375 63.002V101.079C157.375 102.64 156.109 103.906 154.548 103.906H119.452C117.89 103.906 116.625 102.641 116.625 101.079Z" fill="#7161EF"/>
    <path d="M149.459 55.0865H137.759C142.131 55.0865 145.674 58.6307 145.674 63.002V101.079C145.674 102.64 144.409 103.906 142.847 103.906H154.548C156.109 103.906 157.375 102.64 157.375 101.079V63.0024C157.375 58.6307 153.831 55.0865 149.459 55.0865Z" fill="#5B4DC6"/>
    <path d="M137.695 64.651C133.388 64.2245 129.797 67.8152 130.224 72.1226C130.539 75.31 133.118 77.8882 136.305 78.2043C140.613 78.6308 144.204 75.0401 143.777 70.7327C143.461 67.5445 140.882 64.9663 137.695 64.651Z" fill="white"/>
    <path d="M93.9537 160.321C86.122 161.151 79.5528 154.581 80.3833 146.75C80.9885 141.043 85.576 136.456 91.2828 135.852C99.1144 135.022 105.684 141.592 104.853 149.423C104.248 155.13 99.6601 159.717 93.9537 160.321Z" fill="#7161EF"/>
    <path d="M92.6182 188.635C85.4714 188.635 78.6334 185.961 73.3632 181.107L72.1859 180.023L72.337 178.428C73.3335 167.916 82.0526 159.989 92.6179 159.989C103.183 159.989 111.902 167.916 112.899 178.428L113.05 180.022L111.873 181.107C106.603 185.961 99.7647 188.635 92.6182 188.635Z" fill="#7161EF"/>
    <path d="M126.221 141.873H174.511C176.168 141.873 177.613 140.596 177.663 138.94C177.714 137.226 176.34 135.821 174.638 135.821H126.348C124.691 135.821 123.246 137.098 123.197 138.754C123.146 140.468 124.519 141.873 126.221 141.873Z" fill="#FBF9FF"/>
    <path d="M198.846 135.82H190.903C189.246 135.82 187.802 137.097 187.752 138.753C187.701 140.467 189.074 141.872 190.776 141.872H198.719C200.376 141.872 201.821 140.595 201.871 138.939C201.922 137.225 200.548 135.82 198.846 135.82Z" fill="#FBF9FF"/>
    <path d="M126.221 166.081H150.303C151.96 166.081 153.405 164.804 153.454 163.147C153.506 161.434 152.132 160.029 150.43 160.029H126.348C124.691 160.029 123.246 161.306 123.197 162.962C123.146 164.676 124.519 166.081 126.221 166.081Z" fill="#FBF9FF"/>
    <path d="M198.846 160.029H166.695C165.038 160.029 163.593 161.306 163.543 162.962C163.492 164.675 164.866 166.081 166.568 166.081H198.719C200.376 166.081 201.821 164.804 201.871 163.147C201.922 161.433 200.548 160.029 198.846 160.029Z" fill="#FBF9FF"/>
    <path d="M198.846 184.237H126.348C124.691 184.237 123.246 185.514 123.197 187.17C123.145 188.884 124.519 190.289 126.221 190.289H198.719C200.376 190.289 201.821 189.012 201.871 187.356C201.922 185.642 200.548 184.237 198.846 184.237Z" fill="#FBF9FF"/>
</svg>
